<svg id="Isolation_Mode" data-name="Isolation Mode" xmlns="http://www.w3.org/2000/svg" viewBox="0 0 60 60"><defs><style>.cls-1{fill:#1d387b;}</style></defs><title>quote</title><path class="cls-1" d="M23.84,7a137.94,137.94,0,0,0-6.16,15.47,97.51,97.51,0,0,0-3,12.89,9.25,9.25,0,0,1,6,3.44A10.67,10.67,0,0,1,23,45.66,10.78,10.78,0,0,1,11.81,56.83a10.5,10.5,0,0,1-8.16-3.29q-3-3.29-3-9,0-14,13.75-42.1ZM56.21,38.93a10.12,10.12,0,0,1,2.29,6.73,10.62,10.62,0,0,1-3.29,8A11.34,11.34,0,0,1,47,56.83a10.4,10.4,0,0,1-8-3.44,12.62,12.62,0,0,1-3.15-8.88q0-13.46,14-42.1L59.36,7q-4,8.88-6,14.89a105.85,105.85,0,0,0-3.44,13.46A11,11,0,0,1,56.21,38.93Z"/></svg>