<svg id="logo" xmlns="http://www.w3.org/2000/svg" viewBox="0 0 50 50"><defs><style>.cls-1{fill:#fff;}</style></defs><title>Bulit</title><path class="cls-1" d="M25,.82S8.24,23.17,8.24,32.42a16.76,16.76,0,1,0,33.51,0C41.76,23.17,25,.82,25,.82Zm9.29,38A13.18,13.18,0,0,1,28.16,43a8.89,8.89,0,0,1-3.8.67,9.36,9.36,0,0,1-3-.93,15,15,0,0,1-5.47-3.87,7.11,7.11,0,0,1-1.09-7.7,5.72,5.72,0,0,1,7.55-2.3A19.23,19.23,0,0,1,25.1,31a7.91,7.91,0,0,1,5.75-2.42,4.82,4.82,0,0,1,1.55.31,5.42,5.42,0,0,1,3,2.86A7.3,7.3,0,0,1,34.29,38.79Z"/></svg>