<svg id="Layer_1" data-name="Layer 1" xmlns="http://www.w3.org/2000/svg" xmlns:xlink="http://www.w3.org/1999/xlink" viewBox="0 0 149 63.13"><defs><style>.cls-1{fill-rule:evenodd;fill:url(#GradientFill_4);}.cls-2{fill:#fff;}</style><linearGradient id="GradientFill_4" x1="68.94" y1="59.99" x2="81.97" y2="4.4" gradientUnits="userSpaceOnUse"><stop offset="0" stop-color="#d91f26"/><stop offset="1" stop-color="#ef4923"/></linearGradient></defs><title>Cardio</title><path class="cls-1" d="M58.09,59.71a4.87,4.87,0,0,1-4.89-4L49.14,35.16l-2.43,4.67a4.94,4.94,0,0,1-4.45,2.74H28.14L18,42.62a7.59,7.59,0,0,1-6.88,3.5c-3.92,0-8.47-3.7-8.47-8.47s4.55-8.47,8.47-8.47A7.59,7.59,0,0,1,18,32.67h6.42l1.42,0H39.19l6.37-14.22a5,5,0,0,1,9.34,1.26l3.3,12.06L63.82,6.88a5,5,0,0,1,9.76.27l3.21,19.06L79.85,19a4.87,4.87,0,0,1,4.55-3,4.94,4.94,0,0,1,4.84,3.67l4.46,16.66.31-.73a5,5,0,0,1,4.58-3l31.73.05a7.6,7.6,0,0,1,6.87-3.49c3.92,0,8.47,3.7,8.47,8.47s-4.55,8.47-8.47,8.47a7.59,7.59,0,0,1-6.88-3.5l-28.52,0-4.61,8.61a5,5,0,0,1-9.36-.68L83.45,36l-4.1,9.69a5,5,0,0,1-9.53-1L68,33.69l-5,22A4.9,4.9,0,0,1,58.09,59.71Z"/><path class="cls-2" d="M68.66,4.45a3.46,3.46,0,0,1,3.51,2.95l3.71,22a.45.45,0,0,0,.46.41.72.72,0,0,0,.64-.43l4.16-9.83a3.45,3.45,0,0,1,3.24-2.16A3.53,3.53,0,0,1,87.87,20l5,18.79c.1.37.32.53.56.53a.87.87,0,0,0,.74-.56l1.12-2.64A3.57,3.57,0,0,1,98.6,34h.1l32.41,0a6.33,6.33,0,0,1,6.09-3.49c3.24,0,7.05,3.16,7.05,7s-3.8,7.05-7.05,7.05a6.33,6.33,0,0,1-6.09-3.5l-30.16,0-5,9.36a3.56,3.56,0,0,1-6.74-.4l-5-16.41c-.06-.2-.33-.29-.61-.29s-.61.11-.7.3L78,45.16a3.56,3.56,0,0,1-6.82-.7L68.68,29.41c-.08-.48-.35-.74-.62-.74s-.46.2-.56.63L61.58,55.42a3.56,3.56,0,0,1-7,0L50.35,33.91c-.14-.72-.51-1.14-.94-1.14s-.71.26-1,.83l-2.9,5.57a3.56,3.56,0,0,1-3.19,2H28.13l-10.88,0a6.33,6.33,0,0,1-6.09,3.5c-3.25,0-7.05-3.16-7.05-7.05s3.81-7,7.05-7a6.33,6.33,0,0,1,6.09,3.49h8.63v0H40.11L46.86,19a3.56,3.56,0,0,1,6.66,1l4,14.66c.14.53.46.84.77.84s.57-.27.71-.87L65.2,7.2a3.45,3.45,0,0,1,3.46-2.75m0-2.84v0a6.28,6.28,0,0,0-6.24,5L59.3,20.38l-1.24,5.47-1.8-6.57a6.4,6.4,0,0,0-12-1.54l0,0,0,0-6,13.38H23v.05H18.76a9,9,0,0,0-7.6-3.49c-4.67,0-9.89,4.23-9.89,9.89s5.22,9.89,9.89,9.89A9,9,0,0,0,18.77,44l9.37,0H42.27A6.36,6.36,0,0,0,48,40.46l.55-1L49.63,45l2.18,11a6.41,6.41,0,0,0,12.56,0l3.39-15,.08.48.58,3.42a6.39,6.39,0,0,0,6.33,5.33,6.32,6.32,0,0,0,5.93-4l2.56-6,1.67,5.49,1.58,5.2a6.47,6.47,0,0,0,6.18,4.66,6.39,6.39,0,0,0,5.82-3.81l1.69-3.16,2.48-4.64,26.94,0a9,9,0,0,0,7.61,3.5c4.67,0,9.9-4.23,9.9-9.89s-5.22-9.89-9.9-9.89a9,9,0,0,0-7.6,3.49l-30.86,0H98.6a6.39,6.39,0,0,0-4.35,1.7L93.06,28.4l-2.44-9.11a6.35,6.35,0,0,0-6.22-4.73,6.28,6.28,0,0,0-5.86,3.89l-1.15,2.72L76.18,14,75,6.92A6.3,6.3,0,0,0,68.66,1.6Z"/></svg>