<svg xmlns="http://www.w3.org/2000/svg" xmlns:xlink="http://www.w3.org/1999/xlink" viewBox="0 0 200 200"><defs><style>.cls-1{isolation:isolate;}.cls-2{fill:url(#New_Gradient_Swatch_copy_2);}.cls-3,.cls-5{mix-blend-mode:overlay;}.cls-3{fill:url(#linear-gradient);}.cls-4{fill:url(#linear-gradient-2);}.cls-5{fill:url(#linear-gradient-3);}</style><linearGradient id="New_Gradient_Swatch_copy_2" x1="112.77" y1="729.07" x2="111.66" y2="675.52" gradientTransform="translate(-291.82 -419.56) rotate(-26.91)" gradientUnits="userSpaceOnUse"><stop offset="0" stop-color="#af2924"/><stop offset="0.02" stop-color="#ad2520"/><stop offset="0.16" stop-color="#a0130c"/><stop offset="0.25" stop-color="#9b0c05"/><stop offset="0.42" stop-color="#980b05"/><stop offset="0.49" stop-color="#9e0b04"/><stop offset="0.59" stop-color="#ae0b02"/><stop offset="1" stop-color="#ff433d"/></linearGradient><linearGradient id="linear-gradient" x1="112.23" y1="653.64" x2="112.23" y2="757.42" gradientTransform="translate(-291.82 -419.56) rotate(-26.91)" gradientUnits="userSpaceOnUse"><stop offset="0" stop-color="#535353"/><stop offset="0.03" stop-color="#5e5e5e"/><stop offset="0.07" stop-color="#7a7a7a"/><stop offset="0.13" stop-color="#a8a8a8"/><stop offset="0.15" stop-color="#b5b5b5"/><stop offset="0.28" stop-color="#a7a7a7"/><stop offset="0.52" stop-color="#909090"/><stop offset="0.55" stop-color="#848484"/><stop offset="0.62" stop-color="#676767"/><stop offset="0.7" stop-color="#4f4f4f"/><stop offset="0.79" stop-color="#3f3f3f"/><stop offset="0.88" stop-color="#353535"/><stop offset="1" stop-color="#323232"/></linearGradient><linearGradient id="linear-gradient-2" x1="112.18" y1="719.84" x2="112.18" y2="545.62" gradientTransform="translate(-291.82 -419.56) rotate(-26.91)" gradientUnits="userSpaceOnUse"><stop offset="0" stop-color="#b3140e"/><stop offset="0.38" stop-color="#d9281e"/><stop offset="0.44" stop-color="#e03027"/><stop offset="0.56" stop-color="#ea3d35"/><stop offset="0.67" stop-color="#ee413a"/><stop offset="1" stop-color="#fd5b47"/></linearGradient><linearGradient id="linear-gradient-3" x1="112.18" y1="538.73" x2="112.18" y2="732.87" gradientTransform="translate(-291.82 -419.56) rotate(-26.91)" gradientUnits="userSpaceOnUse"><stop offset="0" stop-color="#535353"/><stop offset="0" stop-color="#545454"/><stop offset="0.05" stop-color="#777"/><stop offset="0.1" stop-color="#929292"/><stop offset="0.16" stop-color="#a6a6a6"/><stop offset="0.21" stop-color="#b1b1b1"/><stop offset="0.26" stop-color="#b5b5b5"/><stop offset="0.39" stop-color="#8e8e8e"/><stop offset="0.57" stop-color="#5c5c5c"/><stop offset="0.71" stop-color="#3e3e3e"/><stop offset="0.79" stop-color="#323232"/></linearGradient></defs><title>price</title><g class="cls-1"><g id="Layer_3" data-name="Layer 3"><path class="cls-2" d="M184.63,127.92a98.69,98.69,0,0,0-115.72,59,10.06,10.06,0,0,1-13.48,5.45,21,21,0,0,0,18.93,0L186.14,135.6a21,21,0,0,0,11.2-15.27A10.09,10.09,0,0,1,184.63,127.92Z"/><path class="cls-3" d="M184.63,127.92a98.69,98.69,0,0,0-115.72,59,10.06,10.06,0,0,1-13.48,5.45,21,21,0,0,0,18.93,0L186.14,135.6a21,21,0,0,0,11.2-15.27A10.09,10.09,0,0,1,184.63,127.92Z"/><path class="cls-4" d="M55.26,16.23c-71.54,36.32-72.49,139.51.18,176.14a10.06,10.06,0,0,0,13.48-5.45A98.7,98.7,0,0,1,185,128c5,1.28,11.42-1.24,12.62-9.27C209.39,39.69,126.63-20,55.26,16.23Z"/><path class="cls-5" d="M55.26,16.23c-71.54,36.32-72.49,139.51.18,176.14a10.06,10.06,0,0,0,13.48-5.45A98.7,98.7,0,0,1,185,128c5,1.28,11.42-1.24,12.62-9.27C209.39,39.69,126.63-20,55.26,16.23Z"/></g></g></svg>