<svg id="Слой_1" data-name="Слой 1" xmlns="http://www.w3.org/2000/svg" viewBox="0 0 746 147"><defs><style>.cls-1{fill:#1d387b;}</style></defs><title>Stars_blue</title><path class="cls-1" d="M635.15,131.72l35.28-21.18,35.37,21a4.55,4.55,0,0,0,6.76-4.93l-9.24-40.1L734.25,59.4a4.55,4.55,0,0,0-2.6-8l-41-3.6L674.4,10a4.55,4.55,0,0,0-8.37,0L649.94,47.93,609,51.7a4.55,4.55,0,0,0-2.57,8l31,27-9.08,40.14A4.55,4.55,0,0,0,635.15,131.72Z"/><path class="cls-1" d="M486.38,131.72l35.28-21.18,35.37,21a4.55,4.55,0,0,0,6.76-4.93l-9.24-40.1L585.48,59.4a4.55,4.55,0,0,0-2.6-8l-41-3.6L525.63,10a4.55,4.55,0,0,0-8.37,0L501.17,47.93l-41,3.77a4.55,4.55,0,0,0-2.57,8l31,27-9.07,40.14A4.55,4.55,0,0,0,486.38,131.72Z"/><path class="cls-1" d="M337.6,131.72l35.28-21.18,35.37,21a4.55,4.55,0,0,0,6.76-4.93l-9.24-40.1L436.71,59.4a4.55,4.55,0,0,0-2.6-8l-41-3.6L376.86,10a4.55,4.55,0,0,0-8.37,0L352.4,47.93l-41,3.77a4.55,4.55,0,0,0-2.57,8l31,27-9.07,40.14A4.55,4.55,0,0,0,337.6,131.72Z"/><path class="cls-1" d="M188.83,131.72l35.28-21.18,35.37,21a4.55,4.55,0,0,0,6.76-4.93L257,86.54,287.93,59.4a4.55,4.55,0,0,0-2.6-8l-41-3.6L228.09,10a4.55,4.55,0,0,0-8.37,0L203.63,47.93l-41,3.77a4.55,4.55,0,0,0-2.57,8l31,27L182,126.81A4.55,4.55,0,0,0,188.83,131.72Z"/><path class="cls-1" d="M40.06,131.72l35.28-21.18,35.37,21a4.55,4.55,0,0,0,6.76-4.93l-9.24-40.1L139.16,59.4a4.55,4.55,0,0,0-2.6-8l-41-3.6L79.32,10a4.55,4.55,0,0,0-8.37,0L54.85,47.93l-41,3.77a4.55,4.55,0,0,0-2.57,8l31,27-9.07,40.14A4.55,4.55,0,0,0,40.06,131.72Z"/></svg>