<?xml version="1.0" encoding="utf-8"?>
<!-- Generator: Adobe Illustrator 20.1.0, SVG Export Plug-In . SVG Version: 6.00 Build 0)  -->
<svg version="1.1" id="Isolation_Mode" xmlns="http://www.w3.org/2000/svg" xmlns:xlink="http://www.w3.org/1999/xlink" x="0px"
	 y="0px" viewBox="0 0 28 28" style="enable-background:new 0 0 28 28;" xml:space="preserve">
<style type="text/css">
	.st0{fill:#2D456E;}
</style>
<g>
	<path class="st0" d="M14,0.2C6.4,0.2,0.2,6.4,0.2,14c0,7.6,6.2,13.8,13.8,13.8S27.8,21.6,27.8,14C27.8,6.4,21.6,0.2,14,0.2z
		 M15,25.7v-0.9c0-0.6-0.5-1-1-1s-1,0.5-1,1v0.9C7.3,25.2,2.8,20.6,2.3,15h0.9c0.6,0,1-0.5,1-1c0-0.6-0.5-1-1-1H2.4
		C2.9,7.3,7.3,2.8,13,2.3v0.9c0,0.6,0.5,1,1,1s1-0.5,1-1V2.3c5.6,0.5,10.1,5,10.6,10.6h-0.9c-0.6,0-1,0.5-1,1c0,0.6,0.5,1,1,1h0.9
		C25.2,20.6,20.7,25.2,15,25.7z"/>
	<path class="st0" d="M20.2,7.3L14,13.7c0,0,0,0,0,0c-0.1,0-0.2,0-0.2,0L8.6,9.9C8.3,9.6,7.8,9.7,7.5,10c-0.3,0.3-0.2,0.8,0.2,1.1
		l5.2,3.9c0,0.6,0.6,1.1,1.2,1.1c0.6,0,1.2-0.5,1.2-1.2c0,0,0-0.1,0-0.1l6.2-6.5c0.3-0.3,0.3-0.8,0-1.1C21,7,20.5,7,20.2,7.3z"/>
</g>
</svg>
